<?xml version="1.0" encoding="utf-8"?>
<!-- Generator: Adobe Illustrator 24.2.3, SVG Export Plug-In . SVG Version: 6.00 Build 0)  -->
<svg version="1.1" id="Layer_1" xmlns="http://www.w3.org/2000/svg" xmlns:xlink="http://www.w3.org/1999/xlink" x="0px" y="0px"
	 viewBox="0 0 1106 500" style="enable-background:new 0 0 1106 500;" xml:space="preserve">
<style type="text/css">
	.st0{clip-path:url(#SVGID_2_);}
	.st1{clip-path:url(#SVGID_4_);}
	.st2{fill:url(#SVGID_5_);}
	.st3{fill:#056E55;}
	.st4{font-family:'MyriadPro-Semibold';}
	.st5{font-size:159.0238px;}
	.st6{fill:#FFFFFF;}
	.st7{font-size:91.6596px;}
</style>
<g>
	<g>
		<g>
			<defs>
				<rect id="SVGID_1_" x="175.5" y="114.7" width="270.6" height="270.6"/>
			</defs>
			<clipPath id="SVGID_2_">
				<use xlink:href="#SVGID_1_"  style="overflow:visible;"/>
			</clipPath>
			<g class="st0">
				<g>
					<g>
						<defs>
							<path id="SVGID_3_" d="M408.2,152.6v27.6c0,7.8-3.2,14.8-8.4,19.9c9.3-3.5,20.2-1.5,27.7,5.9l-34.9,34.9
								c-10.2,10.2-26.7,10.2-36.8,0l28.5-28.5l0,0l6.5-6.5v-0.1c-3.1,1.3-6.5,1.9-10,1.9h-27.6v-27.6c0-3.5,0.7-6.9,1.9-10
								l-35,34.9c-10.2-10.2-10.2-26.7,0-36.8l34.9-34.9c7.4,7.4,9.4,18.4,5.9,27.7c5-5.2,12.1-8.4,19.9-8.4
								C380.6,152.6,408.2,152.6,408.2,152.6z M310.8,231.7c10.1,0,18.3,8.2,18.3,18.3c0,10.1-8.2,18.3-18.3,18.3
								c-10.1,0-18.3-8.2-18.3-18.3C292.5,239.9,300.7,231.7,310.8,231.7z M175.5,250l11.7-11.8c6.5-6.5,17.1-6.5,23.6,0l11.7,11.8
								l-11.7,11.8c-6.5,6.5-17.1,6.5-23.6,0L175.5,250z M310.8,385.3L299,373.6c-6.5-6.5-6.5-17.1,0-23.6l11.8-11.8l11.7,11.8
								c6.5,6.5,6.5,17.1,0,23.6L310.8,385.3z M446.1,250l-11.7,11.8c-6.5,6.5-17.1,6.5-23.6,0l-11.8-11.7l11.8-11.8
								c6.5-6.5,17.1-6.5,23.6,0L446.1,250z M310.8,114.7l11.7,11.7c6.5,6.5,6.5,17.1,0,23.6l-11.7,11.7L299,150
								c-6.5-6.5-6.5-17.1,0-23.6L310.8,114.7z M213.3,152.6h27.6c7.8,0,14.8,3.2,19.9,8.4c-3.5-9.3-1.5-20.2,5.9-27.7l28.5,28.5
								l6.5,6.5c10.2,10.1,10.2,26.7,0,36.8l-28.5-28.5l0,0l-6.5-6.5l-0.1-0.1c1.3,3.1,1.9,6.5,1.9,10v27.6h-27.6
								c-3.5,0-6.9-0.6-10-1.9l0.1,0.1l6.5,6.5l0,0l28.5,28.5c-10.2,10.2-26.7,10.2-36.8,0l-6.5-6.5l-28.5-28.5
								c7.4-7.4,18.4-9.4,27.7-5.9c-5.2-5-8.4-12.1-8.4-19.9L213.3,152.6L213.3,152.6z M213.3,347.4v-27.7c0-7.8,3.2-14.8,8.4-19.9
								c-9.3,3.5-20.2,1.5-27.7-5.9l34.9-34.9c10.1-10.2,26.7-10.2,36.8,0L230.9,294c3.1-1.2,6.5-1.9,10-1.9h27.6v27.6
								c0,3.5-0.6,6.9-1.9,10l6.5-6.5l0,0l28.5-28.3c10.2,10.2,10.2,26.7,0,36.8l-34.8,34.9c-7.4-7.4-9.4-18.4-5.9-27.7
								c-5,5.2-12.1,8.4-19.9,8.4H213.3z M408.2,347.4h-27.7c-7.8,0-14.8-3.2-19.9-8.4c3.5,9.3,1.5,20.2-5.9,27.7l-28.5-28.5
								l-6.5-6.5c-10.2-10.2-10.2-26.7,0-36.8l28.5,28.5l6.5,6.5h0.1c-1.2-3.1-1.9-6.5-1.9-10v-27.6h27.6c3.5,0,6.9,0.7,10,1.9
								l-0.1-0.1l-6.5-6.5l-28.5-28.5c10.2-10.2,26.7-10.2,36.8,0l6.5,6.5l28.5,28.5c-7.4,7.4-18.4,9.4-27.7,5.9
								c5.2,5,8.4,12.1,8.4,19.9v27.6H408.2z"/>
						</defs>
						<clipPath id="SVGID_4_">
							<use xlink:href="#SVGID_3_"  style="overflow:visible;"/>
						</clipPath>
						<g class="st1">
							
								<linearGradient id="SVGID_5_" gradientUnits="userSpaceOnUse" x1="-14034.915" y1="10106.9316" x2="-4486.2178" y2="9127.3066" gradientTransform="matrix(3.091533e-02 0 0 3.091533e-02 597.0737 -47.3664)">
								<stop  offset="0" style="stop-color:#2BD4AB"/>
								<stop  offset="6.250000e-02" style="stop-color:#2BD4AB"/>
								<stop  offset="9.304660e-02" style="stop-color:#2BD4AB"/>
								<stop  offset="9.375000e-02" style="stop-color:#2BD3AB"/>
								<stop  offset="9.765621e-02" style="stop-color:#2BD3AA"/>
								<stop  offset="0.1016" style="stop-color:#2AD2AA"/>
								<stop  offset="0.1055" style="stop-color:#2AD2A9"/>
								<stop  offset="0.1094" style="stop-color:#2AD1A9"/>
								<stop  offset="0.1133" style="stop-color:#2AD1A8"/>
								<stop  offset="0.1172" style="stop-color:#2AD0A8"/>
								<stop  offset="0.1211" style="stop-color:#29D0A7"/>
								<stop  offset="0.125" style="stop-color:#29CFA7"/>
								<stop  offset="0.1289" style="stop-color:#29CEA6"/>
								<stop  offset="0.1328" style="stop-color:#29CEA6"/>
								<stop  offset="0.1367" style="stop-color:#29CDA6"/>
								<stop  offset="0.1406" style="stop-color:#28CDA5"/>
								<stop  offset="0.1445" style="stop-color:#28CCA5"/>
								<stop  offset="0.1484" style="stop-color:#28CCA4"/>
								<stop  offset="0.1523" style="stop-color:#28CBA4"/>
								<stop  offset="0.1563" style="stop-color:#28CBA3"/>
								<stop  offset="0.1602" style="stop-color:#27CAA3"/>
								<stop  offset="0.1641" style="stop-color:#27CAA2"/>
								<stop  offset="0.168" style="stop-color:#27C9A2"/>
								<stop  offset="0.1719" style="stop-color:#27C9A1"/>
								<stop  offset="0.1758" style="stop-color:#27C8A1"/>
								<stop  offset="0.1797" style="stop-color:#26C7A0"/>
								<stop  offset="0.1836" style="stop-color:#26C7A0"/>
								<stop  offset="0.1875" style="stop-color:#26C6A0"/>
								<stop  offset="0.1914" style="stop-color:#26C69F"/>
								<stop  offset="0.1953" style="stop-color:#26C59F"/>
								<stop  offset="0.1992" style="stop-color:#25C59E"/>
								<stop  offset="0.2031" style="stop-color:#25C49E"/>
								<stop  offset="0.207" style="stop-color:#25C49D"/>
								<stop  offset="0.2109" style="stop-color:#25C39D"/>
								<stop  offset="0.2148" style="stop-color:#25C39C"/>
								<stop  offset="0.2188" style="stop-color:#24C29C"/>
								<stop  offset="0.2227" style="stop-color:#24C19B"/>
								<stop  offset="0.2266" style="stop-color:#24C19B"/>
								<stop  offset="0.2305" style="stop-color:#24C09A"/>
								<stop  offset="0.2344" style="stop-color:#24C09A"/>
								<stop  offset="0.2383" style="stop-color:#23BF9A"/>
								<stop  offset="0.2422" style="stop-color:#23BF99"/>
								<stop  offset="0.2461" style="stop-color:#23BE99"/>
								<stop  offset="0.25" style="stop-color:#23BE98"/>
								<stop  offset="0.2539" style="stop-color:#22BD98"/>
								<stop  offset="0.2578" style="stop-color:#22BD97"/>
								<stop  offset="0.2617" style="stop-color:#22BC97"/>
								<stop  offset="0.2656" style="stop-color:#22BB96"/>
								<stop  offset="0.2695" style="stop-color:#22BB96"/>
								<stop  offset="0.2734" style="stop-color:#21BA95"/>
								<stop  offset="0.2773" style="stop-color:#21BA95"/>
								<stop  offset="0.2813" style="stop-color:#21B994"/>
								<stop  offset="0.2852" style="stop-color:#21B994"/>
								<stop  offset="0.2891" style="stop-color:#21B894"/>
								<stop  offset="0.293" style="stop-color:#20B893"/>
								<stop  offset="0.2969" style="stop-color:#20B793"/>
								<stop  offset="0.3008" style="stop-color:#20B792"/>
								<stop  offset="0.3047" style="stop-color:#20B692"/>
								<stop  offset="0.3086" style="stop-color:#20B691"/>
								<stop  offset="0.3125" style="stop-color:#1FB591"/>
								<stop  offset="0.3164" style="stop-color:#1FB490"/>
								<stop  offset="0.3203" style="stop-color:#1FB490"/>
								<stop  offset="0.3242" style="stop-color:#1FB38F"/>
								<stop  offset="0.3281" style="stop-color:#1FB38F"/>
								<stop  offset="0.332" style="stop-color:#1EB28E"/>
								<stop  offset="0.3359" style="stop-color:#1EB28E"/>
								<stop  offset="0.3398" style="stop-color:#1EB18D"/>
								<stop  offset="0.3438" style="stop-color:#1EB18D"/>
								<stop  offset="0.3477" style="stop-color:#1EB08D"/>
								<stop  offset="0.3516" style="stop-color:#1DB08C"/>
								<stop  offset="0.3555" style="stop-color:#1DAF8C"/>
								<stop  offset="0.3594" style="stop-color:#1DAE8B"/>
								<stop  offset="0.3633" style="stop-color:#1DAE8B"/>
								<stop  offset="0.3672" style="stop-color:#1DAD8A"/>
								<stop  offset="0.3711" style="stop-color:#1CAD8A"/>
								<stop  offset="0.375" style="stop-color:#1CAC89"/>
								<stop  offset="0.3789" style="stop-color:#1CAC89"/>
								<stop  offset="0.3828" style="stop-color:#1CAB88"/>
								<stop  offset="0.3867" style="stop-color:#1BAB88"/>
								<stop  offset="0.3906" style="stop-color:#1BAA87"/>
								<stop  offset="0.3945" style="stop-color:#1BAA87"/>
								<stop  offset="0.3984" style="stop-color:#1BA987"/>
								<stop  offset="0.4023" style="stop-color:#1BA886"/>
								<stop  offset="0.4063" style="stop-color:#1AA886"/>
								<stop  offset="0.4102" style="stop-color:#1AA785"/>
								<stop  offset="0.4141" style="stop-color:#1AA785"/>
								<stop  offset="0.418" style="stop-color:#1AA684"/>
								<stop  offset="0.4219" style="stop-color:#1AA684"/>
								<stop  offset="0.4258" style="stop-color:#19A583"/>
								<stop  offset="0.4297" style="stop-color:#19A583"/>
								<stop  offset="0.4336" style="stop-color:#19A482"/>
								<stop  offset="0.4375" style="stop-color:#19A482"/>
								<stop  offset="0.4414" style="stop-color:#19A381"/>
								<stop  offset="0.4453" style="stop-color:#18A381"/>
								<stop  offset="0.4492" style="stop-color:#18A281"/>
								<stop  offset="0.4531" style="stop-color:#18A180"/>
								<stop  offset="0.457" style="stop-color:#18A180"/>
								<stop  offset="0.4609" style="stop-color:#18A07F"/>
								<stop  offset="0.4648" style="stop-color:#17A07F"/>
								<stop  offset="0.4688" style="stop-color:#179F7E"/>
								<stop  offset="0.4727" style="stop-color:#179F7E"/>
								<stop  offset="0.4766" style="stop-color:#179E7D"/>
								<stop  offset="0.4805" style="stop-color:#179E7D"/>
								<stop  offset="0.4844" style="stop-color:#169D7C"/>
								<stop  offset="0.4883" style="stop-color:#169D7C"/>
								<stop  offset="0.4922" style="stop-color:#169C7B"/>
								<stop  offset="0.4961" style="stop-color:#169B7B"/>
								<stop  offset="0.5" style="stop-color:#169B7B"/>
								<stop  offset="0.5039" style="stop-color:#159A7A"/>
								<stop  offset="0.5078" style="stop-color:#159A7A"/>
								<stop  offset="0.5117" style="stop-color:#159979"/>
								<stop  offset="0.5156" style="stop-color:#159979"/>
								<stop  offset="0.5195" style="stop-color:#159878"/>
								<stop  offset="0.5234" style="stop-color:#149878"/>
								<stop  offset="0.5273" style="stop-color:#149777"/>
								<stop  offset="0.5313" style="stop-color:#149777"/>
								<stop  offset="0.5352" style="stop-color:#149676"/>
								<stop  offset="0.5391" style="stop-color:#139576"/>
								<stop  offset="0.543" style="stop-color:#139575"/>
								<stop  offset="0.5469" style="stop-color:#139475"/>
								<stop  offset="0.5508" style="stop-color:#139475"/>
								<stop  offset="0.5547" style="stop-color:#139374"/>
								<stop  offset="0.5586" style="stop-color:#129374"/>
								<stop  offset="0.5625" style="stop-color:#129273"/>
								<stop  offset="0.5664" style="stop-color:#129273"/>
								<stop  offset="0.5703" style="stop-color:#129172"/>
								<stop  offset="0.5742" style="stop-color:#129172"/>
								<stop  offset="0.5781" style="stop-color:#119071"/>
								<stop  offset="0.582" style="stop-color:#119071"/>
								<stop  offset="0.5859" style="stop-color:#118F70"/>
								<stop  offset="0.5898" style="stop-color:#118E70"/>
								<stop  offset="0.5938" style="stop-color:#118E6F"/>
								<stop  offset="0.5977" style="stop-color:#108D6F"/>
								<stop  offset="0.6016" style="stop-color:#108D6E"/>
								<stop  offset="0.6055" style="stop-color:#108C6E"/>
								<stop  offset="0.6094" style="stop-color:#108C6E"/>
								<stop  offset="0.6133" style="stop-color:#108B6D"/>
								<stop  offset="0.6172" style="stop-color:#0F8B6D"/>
								<stop  offset="0.6211" style="stop-color:#0F8A6C"/>
								<stop  offset="0.625" style="stop-color:#0F8A6C"/>
								<stop  offset="0.6289" style="stop-color:#0F896B"/>
								<stop  offset="0.6328" style="stop-color:#0F886B"/>
								<stop  offset="0.6367" style="stop-color:#0E886A"/>
								<stop  offset="0.6406" style="stop-color:#0E876A"/>
								<stop  offset="0.6445" style="stop-color:#0E8769"/>
								<stop  offset="0.6484" style="stop-color:#0E8669"/>
								<stop  offset="0.6523" style="stop-color:#0E8668"/>
								<stop  offset="0.6563" style="stop-color:#0D8568"/>
								<stop  offset="0.6602" style="stop-color:#0D8568"/>
								<stop  offset="0.6641" style="stop-color:#0D8467"/>
								<stop  offset="0.668" style="stop-color:#0D8467"/>
								<stop  offset="0.6719" style="stop-color:#0D8366"/>
								<stop  offset="0.6758" style="stop-color:#0C8266"/>
								<stop  offset="0.6797" style="stop-color:#0C8265"/>
								<stop  offset="0.6836" style="stop-color:#0C8165"/>
								<stop  offset="0.6875" style="stop-color:#0C8164"/>
								<stop  offset="0.6914" style="stop-color:#0B8064"/>
								<stop  offset="0.6953" style="stop-color:#0B8063"/>
								<stop  offset="0.6992" style="stop-color:#0B7F63"/>
								<stop  offset="0.7031" style="stop-color:#0B7F62"/>
								<stop  offset="0.707" style="stop-color:#0B7E62"/>
								<stop  offset="0.7109" style="stop-color:#0A7E62"/>
								<stop  offset="0.7148" style="stop-color:#0A7D61"/>
								<stop  offset="0.7188" style="stop-color:#0A7D61"/>
								<stop  offset="0.7227" style="stop-color:#0A7C60"/>
								<stop  offset="0.7266" style="stop-color:#0A7B60"/>
								<stop  offset="0.7305" style="stop-color:#097B5F"/>
								<stop  offset="0.7344" style="stop-color:#097A5F"/>
								<stop  offset="0.7383" style="stop-color:#097A5E"/>
								<stop  offset="0.7422" style="stop-color:#09795E"/>
								<stop  offset="0.7461" style="stop-color:#09795D"/>
								<stop  offset="0.75" style="stop-color:#08785D"/>
								<stop  offset="0.7539" style="stop-color:#08785C"/>
								<stop  offset="0.7578" style="stop-color:#08775C"/>
								<stop  offset="0.7617" style="stop-color:#08775C"/>
								<stop  offset="0.7656" style="stop-color:#08765B"/>
								<stop  offset="0.7695" style="stop-color:#07755B"/>
								<stop  offset="0.7734" style="stop-color:#07755A"/>
								<stop  offset="0.7773" style="stop-color:#07745A"/>
								<stop  offset="0.7813" style="stop-color:#077459"/>
								<stop  offset="0.7852" style="stop-color:#077359"/>
								<stop  offset="0.7891" style="stop-color:#067358"/>
								<stop  offset="0.793" style="stop-color:#067258"/>
								<stop  offset="0.7969" style="stop-color:#067257"/>
								<stop  offset="0.8008" style="stop-color:#067157"/>
								<stop  offset="0.8047" style="stop-color:#067156"/>
								<stop  offset="0.8086" style="stop-color:#057056"/>
								<stop  offset="0.8125" style="stop-color:#056F56"/>
								<stop  offset="0.8164" style="stop-color:#056F55"/>
								<stop  offset="0.8203" style="stop-color:#056E55"/>
								<stop  offset="0.8242" style="stop-color:#056E54"/>
								<stop  offset="0.8281" style="stop-color:#046D54"/>
								<stop  offset="0.832" style="stop-color:#046D53"/>
								<stop  offset="0.8359" style="stop-color:#046C53"/>
								<stop  offset="0.8398" style="stop-color:#046C52"/>
								<stop  offset="0.8438" style="stop-color:#036B52"/>
								<stop  offset="0.8477" style="stop-color:#036B51"/>
								<stop  offset="0.8516" style="stop-color:#036A51"/>
								<stop  offset="0.8555" style="stop-color:#036A50"/>
								<stop  offset="0.8594" style="stop-color:#036950"/>
								<stop  offset="0.8633" style="stop-color:#02684F"/>
								<stop  offset="0.8672" style="stop-color:#02684F"/>
								<stop  offset="0.8711" style="stop-color:#02674F"/>
								<stop  offset="0.875" style="stop-color:#02674E"/>
								<stop  offset="0.8789" style="stop-color:#02664E"/>
								<stop  offset="0.8828" style="stop-color:#01664D"/>
								<stop  offset="0.8867" style="stop-color:#01654D"/>
								<stop  offset="0.8906" style="stop-color:#01654C"/>
								<stop  offset="0.8945" style="stop-color:#01644C"/>
								<stop  offset="0.8984" style="stop-color:#01644B"/>
								<stop  offset="0.9023" style="stop-color:#00634B"/>
								<stop  offset="0.9063" style="stop-color:#00624A"/>
								<stop  offset="0.907" style="stop-color:#00624A"/>
								<stop  offset="0.9375" style="stop-color:#00624A"/>
								<stop  offset="1" style="stop-color:#00624A"/>
							</linearGradient>
							<path class="st2" d="M175.5,114.7v270.6h270.6V114.7H175.5z"/>
						</g>
					</g>
				</g>
			</g>
		</g>
	</g>
	<text transform="matrix(1 0 0 1 461.2227 263.7961)" class="st3 st4 st5">PASHA</text>
	<text transform="matrix(1 0 0 1 472.2656 356.5598)" class="st6 st4 st7">Insurise</text>
</g>
</svg>
